# AST/ASF file generated using VICON BodyLanguage
# -----------------------------------------------
:version 1.10
:name VICON
:units
  mass 1.0
  length 0.45
  angle deg
:documentation
   .ast/.asf automatically generated from VICON data using
   VICON BodyBuilder and BodyLanguage model FoxedUp or BRILLIANT.MOD
:root
   order TX TY TZ RX RY RZ
   axis XYZ
   position 0 0 0  
   orientation 0 0 0 
:bonedata
  begin
     id 1 
     name lhipjoint
     direction 0.589753 -0.68606 0.426044 
     length 2.54082 
     axis 0 0 0  XYZ
  end
  begin
     id 2 
     name lfemur
     direction 0.34202 -0.939693 0  
     length 7.04539  
     axis 0 0 20  XYZ
    dof rx ry rz
    limits (-160.0 20.0)
           (-70.0 70.0)
           (-60.0 70.0)
  end
  begin
     id 3 
     name ltibia
     direction 0.34202 -0.939693 0   
     length 7.83772   
     axis 0 0 20   XYZ
    dof rx
    limits (-10.0 170.0)
  end
  begin
     id 4 
     name lfoot
     direction 0.0596604 -0.163915 0.984669   
     length 2.39542   
     axis -90 7.62852e-016 20   XYZ
    dof rx rz
    limits (-45.0 90.0)
           (-70.0 20.0)
  end
  begin
     id 5 
     name ltoes
     direction 1.53514e-011 -4.21954e-011 1   
     length 1.2047   
     axis -90 7.62852e-016 20   XYZ
    dof rx
    limits (-90.0 20.0)
  end
  begin
     id 6 
     name rhipjoint
     direction -0.580585 -0.69168 0.429534   
     length 2.52018  
     axis 0 0 0  XYZ 
  end
  begin
     id 7 
     name rfemur
     direction -0.34202 -0.939693 0   
     length 7.0101   
     axis 0 0 -20   XYZ
    dof rx ry rz
    limits (-160.0 20.0)
           (-70.0 70.0)
           (-70.0 60.0)
  end
  begin
     id 8 
     name rtibia
     direction -0.34202 -0.939693 0   
     length 7.70628   
     axis 0 0 -20   XYZ
    dof rx
    limits (-10.0 170.0)
 end
 begin
     id 9 
     name rfoot
     direction -0.0696237 -0.19129 0.979061   
     length 2.52466  
     axis -90 -7.62852e-016 -20   XYZ
    dof rx rz
    limits (-45.0 90.0)
           (-20.0 70.0)
  end
  begin
     id 10 
     name rtoes
     direction -1.53519e-011 -4.21793e-011 1   
     length 1.266   
     axis -90 -7.62852e-016 -20   XYZ
    dof rx
    limits (-90.0 20.0)
  end
  begin
     id 11 
     name lowerback
     direction 0.00381965 0.995707 -0.0924856   
     length 2.20825   
     axis 0 0 0   XYZ
    dof rx ry rz
    limits (-20.0 45.0)
           (-30.0 30.0)
           (-30.0 30.0)
  end
  begin
     id 12 
     name upperback
     direction -0.0139043 0.999634 -0.0231929   
     length 2.21517   
     axis 0 0 0   XYZ
    dof rx ry rz
    limits (-20.0 45.0)
           (-30.0 30.0)
           (-30.0 30.0)
  end
  begin
     id 13 
     name thorax
     direction -0.0143933 0.999691 0.0202892   
     length 2.22911   
     axis 0 0 0   XYZ
    dof rx ry rz
    limits (-20.0 45.0)
           (-30.0 30.0)
           (-30.0 30.0)
  end
  begin
     id 14 
     name lowerneck
     direction -0.0251153 0.981819 0.188153   
     length 1.61782   
     axis 0 0 0   XYZ
    dof rx ry rz
    limits (-20.0 45.0)
           (-30.0 30.0)
           (-30.0 30.0)
  end
  begin
     id 15 
     name upperneck
     direction 0.0563891 0.969357 -0.239095   
     length 1.64526   
     axis 0 0 0   XYZ
    dof rx ry rz
    limits (-20.0 45.0)
           (-30.0 30.0)
           (-30.0 30.0)
  end
  begin
     id 16
     name head
     direction 0.0208328 0.99459 -0.101773  
     length 1.67436  
     axis 0 0 0   XYZ
    dof rx ry rz
    limits (-20.0 45.0)
           (-30.0 30.0)
           (-30.0 30.0)
  end
  begin
     id 17 
     name lclavicle
     direction 0.917689 0.397224 0.00772059  
     length 3.31102  
     axis 0 0 0   XYZ
    dof ry rz
    limits (-20.0 10.0)
           (0.0 20.0)
  end
  begin
     id 18 
     name lhumerus
     direction 1 -4.4896e-011 2.32308e-027   
     length 5.25537   
     axis 180 -30 -90   XYZ
    dof rx ry rz
    limits (-60.0 90.0)
           (-90.0 90.0)
           (-90.0 90.0)
  end
  begin
     id 19
     name lradius
     direction 1 -4.49005e-011 -2.04271e-027   
     length 3.38855   
     axis 180 -30 -90   XYZ
    dof rx
    limits (-10.0 170.0)
  end
  begin
     id 20
     name lwrist
     direction 1 -4.48892e-011 2.56952e-028   
     length 1.69428   
     axis -5.12785e-016 90 90   XYZ
    dof ry
    limits (-180.0 0.0)
 end
  begin
     id 21 
     name lhand
     direction 1 -4.48966e-011 5.13905e-028   
     length 0.614516   
     axis -3.27915e-016 90 90   XYZ
    dof rx rz
    limits (-90.0 90.0)
           (-45.0 45.0)
  end
  begin
     id 22 
     name lfingers
     direction 1 -4.48979e-011 1.02781e-027   
     length 0.495439   
     axis -6.5583e-016 90 90   XYZ
    dof rx
    limits (0.0 90.0)
  end
  begin
     id 23
     name lthumb
     direction 0.707107 -6.35001e-011 0.707107   
     length 0.711354   
     axis -90 45 2.85299e-015   XYZ
    dof rx rz
    limits (-45.0 45.0)
           (-45.0 45.0)
  end
  begin
     id 24 
     name rclavicle
     direction -0.938556 0.342765 -0.0403177   
     length 3.27019  
     axis 0 0 0   XYZ 
    dof ry rz
    limits (-10.0 20.0)
           (-20.0 0.0)
  end
  begin
     id 25 
     name rhumerus
     direction -1 -4.48966e-011 2.52291e-027  
     length 5.38183   
     axis 180 30 90   XYZ
    dof rx ry rz
    limits (-90.0 60.0)
           (-90.0 90.0)
           (-90.0 90.0)
  end
  begin
     id 26 
     name rradius
     direction -1 -4.4896e-011 1.5797e-027   
     length 3.16988   
     axis 180 30 90   XYZ
    dof rx
    limits (-10.0 170.0)
  end
  begin
     id 27 
     name rwrist
     direction -1 -4.48947e-011 2.56952e-028   
     length 1.58494   
     axis -5.12785e-016 -90 -90   XYZ
    dof ry
    limits (-180.0 0.0)
  end
  begin
     id 28
     name rhand
     direction -1 -4.49098e-011 5.13905e-028   
     length 0.637679   
     axis -3.27915e-016 -90 -90   XYZ
    dof rx rz
    limits (-90.0 90.0)
           (-45.0 45.0)
  end
  begin
     id 29
     name rfingers
     direction -1 -4.49026e-011 1.02781e-027   
     length 0.514113   
     axis -6.5583e-016 -90 -90   XYZ
    dof rx
    limits (0.0 90.0)
  end
  begin
     id 30
     name rthumb
     direction -0.707107 -6.3491e-011 0.707107   
     length 0.738167   
     axis -90 -45 -2.85299e-015   XYZ
    dof rx rz
    limits (-45.0 45.0)
           (-45.0 45.0)
  end
:hierarchy
  begin
    root lhipjoint rhipjoint lowerback
    lhipjoint lfemur
    lfemur ltibia
    ltibia lfoot
    lfoot ltoes
    rhipjoint rfemur
    rfemur rtibia
    rtibia rfoot
    rfoot rtoes
    lowerback upperback
    upperback thorax
    thorax lowerneck lclavicle rclavicle
    lowerneck upperneck
    upperneck head
    lclavicle lhumerus
    lhumerus lradius
    lradius lwrist
    lwrist lhand lthumb
    lhand lfingers
    rclavicle rhumerus
    rhumerus rradius
    rradius rwrist
    rwrist rhand rthumb
    rhand rfingers
  end

#!OML:ASF H:\Swim\Project 1\Capture day 1\Session 1\swimmer.ASF
:FULLY-SPECIFIED
:DEGREES
503
root 6.30016 16.7772 15.2301 50.0087 -4.62031 1.45986
lowerback 19.8269 0.136815 2.96624
upperback 6.45201 0.480605 -3.92087
thorax -4.03418 0.266657 -6.01872
lowerneck -17.3011 -7.14622 -12.1784
upperneck 17.2413 -9.12636 12.1425
head 9.43805 -3.83346 4.96633
rclavicle -7.55382e-015 1.00883e-014
rhumerus 28.9693 13.4776 -53.5905
rradius 24.2908
rwrist -26.598
rhand -50.7145 21.9879
rfingers 7.12502
rthumb -23.2747 -6.62542
lclavicle -7.55382e-015 1.00883e-014
lhumerus 34.1894 -24.5838 58.7251
lradius 31.0639
lwrist -13.1932
lhand -58.3422 24.9513
lfingers 7.12502
lthumb -30.5722 52.4334
rfemur -36.2492 8.08182 16.487
rtibia 26.8008
rfoot -16.481 -14.0024
rtoes -14.9424
lfemur -63.7686 2.86249 -23.323
ltibia 47.5529
lfoot -12.5081 -13.2026
ltoes 16.4014
504
root 6.23807 16.7768 15.2798 50.1391 -3.99028 1.98472
lowerback 19.5655 -0.037507 3.17913
upperback 6.38841 0.301981 -3.8354
thorax -3.98797 0.181579 -6.00284
lowerneck -17.4088 -7.16807 -11.9333
upperneck 17.2842 -9.19411 12.0505
head 9.46444 -3.85344 4.88082
rclavicle 3.97569e-015 5.1684e-015
rhumerus 28.5483 13.6535 -53.7802
rradius 24.2873
rwrist -27.1224
rhand -50.9671 23.0105
rfingers 7.12502
rthumb -23.5171 -5.57193
lclavicle 3.97569e-015 5.1684e-015
lhumerus 34.1033 -25.0902 58.515
lradius 30.8869
lwrist -12.8848
lhand -58.3492 25.0972
lfingers 7.12502
lthumb -30.5789 52.5781
rfemur -36.2078 7.95835 16.518
rtibia 26.9094
rfoot -16.4011 -14.4159
rtoes -15.3981
lfemur -63.6726 3.01637 -24.1865
ltibia 47.563
lfoot -12.502 -12.6031
ltoes 13.0296
505
root 6.17709 16.7729 15.3292 50.3384 -3.34212 2.44237
lowerback 19.2328 -0.203297 3.43701
upperback 6.31147 0.140034 -3.73419
thorax -3.91673 0.104776 -5.99932
lowerneck -17.4952 -7.18478 -11.7107
upperneck 17.271 -9.25401 11.9911
head 9.46923 -3.8695 4.81128
rclavicle -7.95139e-015 2.11706e-014
rhumerus 28.1286 13.9332 -53.8752
rradius 24.3272
rwrist -27.637
rhand -51.2083 23.9507
rfingers 7.12502
rthumb -23.7484 -4.60181
lclavicle -7.95139e-015 2.11706e-014
lhumerus 34.0367 -25.6049 58.2762
lradius 30.6995
lwrist -12.558
lhand -58.3583 25.2675
lfingers 7.12502
lthumb -30.5876 52.7468
rfemur -36.2574 7.8284 16.6193
rtibia 27.0574
rfoot -16.3207 -14.7712
rtoes -15.8662
lfemur -63.656 3.24557 -25.0268
ltibia 47.659
lfoot -12.572 -11.7321
ltoes 10.354
506
root 6.11763 16.7661 15.378 50.5812 -2.71545 2.81882
lowerback 18.8572 -0.348319 3.71157
upperback 6.22244 0.00431543 -3.62432
thorax -3.83262 0.0404931 -6.00245
lowerneck -17.5538 -7.1947 -11.5249
upperneck 17.2152 -9.30542 11.9821
head 9.45758 -3.88067 4.76699
rclavicle -2.5842e-014 3.68746e-014
rhumerus 27.7198 14.3236 -53.8853
rradius 24.3958
rwrist -28.1
rhand -51.4393 24.7348
rfingers 7.12502
rthumb -23.9699 -3.78885
lclavicle -2.5842e-014 3.68746e-014
lhumerus 33.9827 -26.1228 58.0042
lradius 30.5027
lwrist -12.2113
lhand -58.3725 25.4501
lfingers 7.12502
lthumb -30.6011 52.9269
rfemur -36.3697 7.68053 16.7883
rtibia 27.2293
rfoot -16.2201 -15.0204
rtoes -16.3294
lfemur -63.6871 3.54559 -25.8194
ltibia 47.8431
lfoot -12.707 -10.5566
ltoes 9.21183
507
root 6.0602 16.7567 15.4261 50.8577 -2.15281 3.11007
lowerback 18.4396 -0.461596 3.97139
upperback 6.12381 -0.0976233 -3.51481
thorax -3.73228 -0.00748973 -6.00536
lowerneck -17.593 -7.19569 -11.368
upperneck 17.1395 -9.34321 12.0008
head 9.43675 -3.88572 4.73961
rclavicle -1.15295e-014 2.127e-014
rhumerus 27.3411 14.844 -53.8023
rradius 24.4844
rwrist -28.5222
rhand -51.6568 25.2764
rfingers 7.12502
rthumb -24.1785 -3.21963
lclavicle -1.15295e-014 2.127e-014
lhumerus 33.9522 -26.6507 57.6735
lradius 30.2989
lwrist -11.8166
lhand -58.3628 25.6459
lfingers 7.12502
lthumb -30.5919 53.1243
rfemur -36.5349 7.51529 17.0018
rtibia 27.4091
rfoot -16.0749 -15.139
rtoes -16.7995
lfemur -63.7688 3.9178 -26.5742
ltibia 48.1014
lfoot -12.8003 -9.18295
ltoes 9.02148
508
root 6.00519 16.7459 15.4738 51.1383 -1.64301 3.32308
lowerback 18.0074 -0.553899 4.22756
upperback 6.02175 -0.177072 -3.40772
thorax -3.62451 -0.0446242 -6.01454
lowerneck -17.6271 -7.18472 -11.2242
upperneck 17.0748 -9.36358 12.0246
head 9.41741 -3.88316 4.71928
rclavicle -5.56597e-015 7.95139e-015
rhumerus 27.0032 15.4691 -53.6636
rradius 24.5743
rwrist -28.8777
rhand -51.868 25.5965
rfingers 7.12502
rthumb -24.3809 -2.87243
lclavicle -5.56597e-015 7.95139e-015
lhumerus 33.9388 -27.1902 57.2769
lradius 30.0908
lwrist -11.3718
lhand -58.352 25.8714
lfingers 7.12502
lthumb -30.5816 53.3517
rfemur -36.7138 7.32942 17.2634
rtibia 27.5905
rfoot -15.892 -15.1348
rtoes -17.3046
lfemur -63.8783 4.3205 -27.2402
ltibia 48.4254
lfoot -12.7494 -7.76383
ltoes 8.98512
509
root 5.95249 16.7333 15.5218 51.3909 -1.22846 3.46837
lowerback 17.584 -0.616364 4.43457
upperback 5.92803 -0.229814 -3.31289
thorax -3.50846 -0.0685887 -6.01511
lowerneck -17.6678 -7.1644 -11.0969
upperneck 17.0245 -9.36976 12.0594
head 9.40392 -3.87367 4.70799
rclavicle -5.56597e-015 -1.30204e-014
rhumerus 26.7174 16.1658 -53.5003
rradius 24.6483
rwrist -29.1599
rhand -52.073 25.7596
rfingers 7.12502
rthumb -24.5775 -2.68277
lclavicle -5.56597e-015 -1.30204e-014
lhumerus 33.9408 -27.7336 56.8215
lradius 29.8792
lwrist -10.9011
lhand -58.3423 26.139
lfingers 7.12502
lthumb -30.5723 53.6211
rfemur -36.8763 7.12225 17.5413
rtibia 27.7769
rfoot -15.6731 -14.9817
rtoes -17.8234
lfemur -63.9493 4.77751 -27.8487
ltibia 48.8156
lfoot -12.6216 -6.34408
ltoes 8.29472
510
root 5.90164 16.7189 15.5697 51.5899 -0.880627 3.58413
lowerback 17.1798 -0.666067 4.59271
upperback 5.85167 -0.27633 -3.22951
thorax -3.38272 -0.0889625 -6.00195
lowerneck -17.7119 -7.13161 -10.9702
upperneck 16.9993 -9.35781 12.082
head 9.39667 -3.85653 4.69569
rclavicle 2.14687e-014 1.8487e-014
rhumerus 26.4839 16.9055 -53.3398
rradius 24.6958
rwrist -29.3762
rhand -52.2712 25.8095
rfingers 7.12502
rthumb -24.7675 -2.60687
lclavicle 2.14687e-014 1.8487e-014
lhumerus 33.943 -28.2829 56.3243
lradius 29.6619
lwrist -10.4438
lhand -58.3708 26.5256
lfingers 7.12502
lthumb -30.5995 54.0026
rfemur -36.9905 6.9207 17.8094
rtibia 27.9744
rfoot -15.4588 -14.7453
rtoes -18.3687
lfemur -63.9311 5.21581 -28.3462
ltibia 49.2797
lfoot -12.381 -5.11756
ltoes 7.36516
511
root 5.85244 16.7025 15.6177 51.7128 -0.592866 3.67276
lowerback 16.8155 -0.705882 4.70347
upperback 5.79739 -0.318436 -3.15551
thorax -3.25355 -0.106687 -5.97343
lowerneck -17.7634 -7.09052 -10.854
upperneck 17.0001 -9.33395 12.1073
head 9.39891 -3.83363 4.68828
rclavicle 6.36111e-015 -8.74653e-015
rhumerus 26.2957 17.6464 -53.2186
rradius 24.7067
rwrist -29.5301
rhand -52.4601 25.8414
rfingers 7.12502
rthumb -24.9485 -2.54995
lclavicle 6.36111e-015 -8.74653e-015
lhumerus 33.9232 -28.8244 55.8198
lradius 29.4478
lwrist -10.017
lhand -58.4368 27.0062
lfingers 7.12502
lthumb -30.6625 54.4715
rfemur -37.0349 6.72361 18.0728
rtibia 28.1915
rfoot -15.2647 -14.423
rtoes -18.939
lfemur -63.7831 5.62192 -28.7039
ltibia 49.8298
lfoot -12.0875 -4.22905
ltoes 6.03967
512
root 5.805 16.6839 15.6656 51.7385 -0.393198 3.73053
lowerback 16.5174 -0.727669 4.74141
upperback 5.76654 -0.348055 -3.09546
thorax -3.1326 -0.118287 -5.92146
lowerneck -17.8195 -7.0379 -10.737
upperneck 17.032 -9.29313 12.1157
head 9.40957 -3.8038 4.67788
rclavicle -1.55052e-014 2.36554e-014
rhumerus 26.1442 18.3881 -53.1412
rradius 24.6849
rwrist -29.6621
rhand -52.636 25.8914
rfingers 7.12502
rthumb -25.117 -2.47654
lclavicle -1.55052e-014 2.36554e-014
lhumerus 33.8623 -29.3556 55.3336
lradius 29.2451
lwrist -9.58114
lhand -58.5508 27.5154
lfingers 7.12502
lthumb -30.7712 54.9603
rfemur -36.9873 6.53631 18.3161
rtibia 28.4246
rfoot -15.0881 -14.0029
rtoes -19.5376
lfemur -63.4562 5.99008 -28.896
ltibia 50.4682
lfoot -11.8344 -3.84527
ltoes 5.02328
513
root 5.75966 16.6633 15.7135 51.667 -0.26545 3.74554
lowerback 16.2851 -0.733701 4.73636
upperback 5.75926 -0.362604 -3.04693
thorax -3.0192 -0.122395 -5.8609
lowerneck -17.8936 -6.97885 -10.6244
upperneck 17.1023 -9.24163 12.1118
head 9.43498 -3.76923 4.66588
rclavicle -1.51076e-014 2.46493e-014
rhumerus 26.0216 19.1139 -53.1196
rradius 24.6303
rwrist -29.7998
rhand -52.7956 26.0207
rfingers 7.12502
rthumb -25.2699 -2.32566
lclavicle -1.51076e-014 2.46493e-014
lhumerus 33.7464 -29.8557 54.9016
lradius 29.0557
lwrist -9.16712
lhand -58.6848 28.0282
lfingers 7.12502
lthumb -30.8989 55.4489
rfemur -36.8448 6.3528 18.5588
rtibia 28.6665
rfoot -14.9241 -13.4883
rtoes -20.1892
lfemur -62.9488 6.31983 -28.9079
ltibia 51.1914
lfoot -11.5796 -3.88593
ltoes 4.42428
514
root 5.71678 16.6413 15.7618 51.4938 -0.192734 3.71034
lowerback 16.1268 -0.727909 4.71877
upperback 5.77337 -0.361814 -3.00856
thorax -2.92008 -0.119001 -5.80777
lowerneck -17.9824 -6.91846 -10.5248
upperneck 17.196 -9.18782 12.1164
head 9.4721 -3.73266 4.6597
rclavicle 5.1684e-015 -7.35503e-015
rhumerus 25.916 19.8149 -53.1599
rradius 24.5444
rwrist -29.9421
rhand -52.9393 26.2171
rfingers 7.12502
rthumb -25.4076 -2.10978
lclavicle 5.1684e-015 -7.35503e-015
lhumerus 33.559 -30.3021 54.5607
lradius 28.8799
lwrist -8.79536
lhand -58.8032 28.4626
lfingers 7.12502
lthumb -31.0118 55.8619
rfemur -36.5913 6.1573 18.8209
rtibia 28.906
rfoot -14.7665 -12.8789
rtoes -20.9102
lfemur -62.2687 6.63943 -28.7708
ltibia 51.9836
lfoot -11.3481 -4.27249
ltoes 3.95145
515
root 5.67661 16.6173 15.8105 51.2445 -0.177299 3.62317
lowerback 16.0147 -0.708435 4.69238
upperback 5.80128 -0.34365 -2.98035
thorax -2.82852 -0.107092 -5.76417
lowerneck -18.0894 -6.8539 -10.422
upperneck 17.3225 -9.12537 12.0968
head 9.52139 -3.69309 4.64603
rclavicle 5.56597e-015 -1.31198e-014
rhumerus 25.8212 20.5098 -53.25
rradius 24.4361
rwrist -30.1145
rhand -53.0655 26.4769
rfingers 7.12502
rthumb -25.5285 -1.83272
lclavicle 5.56597e-015 -1.31198e-014
lhumerus 33.3011 -30.6842 54.3178
lradius 28.7222
lwrist -8.41456
lhand -58.834 28.6779
lfingers 7.12502
lthumb -31.0411 56.0715
rfemur -36.2505 5.94024 19.0988
rtibia 29.1314
rfoot -14.601 -12.1798
rtoes -21.6818
lfemur -61.44 6.92924 -28.4938
ltibia 52.8245
lfoot -11.0908 -4.74213
ltoes 3.6587
516
root 5.64024 16.5919 15.8581 50.968 -0.194452 3.49115
lowerback 15.9128 -0.686025 4.69635
upperback 5.8278 -0.317488 -2.96245
thorax -2.74261 -0.0912859 -5.75074
lowerneck -18.2209 -6.78336 -10.3024
upperneck 17.4886 -9.0502 12.0287
head 9.58392 -3.64989 4.61461
rclavicle -4.77083e-015 -8.94531e-015
rhumerus 25.7304 21.2083 -53.3812
rradius 24.3149
rwrist -30.3032
rhand -53.1796 26.7731
rfingers 7.12502
rthumb -25.6378 -1.52083
lclavicle -4.77083e-015 -8.94531e-015
lhumerus 32.9751 -30.9936 54.175
lradius 28.5769
lwrist -8.04735
lhand -58.7658 28.6811
lfingers 7.12502
lthumb -30.9762 56.0871
rfemur -35.8758 5.65098 19.4059
rtibia 29.3343
rfoot -14.4051 -11.3167
rtoes -22.3561
lfemur -60.5243 7.18081 -28.1077
ltibia 53.6869
lfoot -10.7609 -5.18435
ltoes 3.70943
517
root 5.60608 16.5656 15.906 50.6629 -0.250074 3.32597
lowerback 15.8244 -0.656028 4.70221
upperback 5.85242 -0.281343 -2.95417
thorax -2.66458 -0.0708483 -5.75064
lowerneck -18.3642 -6.71178 -10.1886
upperneck 17.6738 -8.97039 11.949
head 9.65459 -3.60545 4.58099
rclavicle -5.56597e-015 8.44835e-015
rhumerus 25.6296 21.914 -53.5503
rradius 24.1882
rwrist -30.4887
rhand -53.2906 27.0907
rfingers 7.12502
rthumb -25.7441 -1.1879
lclavicle -5.56597e-015 8.44835e-015
lhumerus 32.5972 -31.2573 54.0989
lradius 28.4382
lwrist -7.69968
lhand -58.6279 28.5369
lfingers 7.12502
lthumb -30.8447 55.9679
rfemur -35.4607 5.3457 19.7125
rtibia 29.5175
rfoot -14.2039 -10.3506
rtoes -22.8954
lfemur -59.5144 7.425 -27.6543
ltibia 54.5381
lfoot -10.3629 -5.48504
ltoes 4.13866
